<svg xmlns="http://www.w3.org/2000/svg" viewBox="0 0 1425.69 1005.06"><defs><style>.cls-1{fill:none;stroke:#1d1e22;stroke-linecap:round;stroke-linejoin:round;stroke-width:13px;}</style></defs><title>GlassK_Tanya</title><g id="Шар_2" data-name="Шар 2"><g id="Слой_1" data-name="Слой 1"><ellipse class="cls-1" cx="712.85" cy="192.13" rx="706.35" ry="185.63"/><ellipse class="cls-1" cx="715.63" cy="200.48" rx="213.63" ry="48.33"/><path class="cls-1" d="M715.63,200.48s-80.85-4.06-126,16.72"/><path class="cls-1" d="M712.85,200.48s80.84-4.06,126,16.72"/><path class="cls-1" d="M956.55,369.93S995,490,904.2,627.56c0,0,22,35.44-13.93,61.16"/><path class="cls-1" d="M890.27,688.72v2.17C849.78,702.76,786.6,710.4,715.64,710.4h-3.42C785.9,710.13,850.89,701.62,890.27,688.72Z"/><path class="cls-1" d="M681,326.43a332.34,332.34,0,0,1-67.63-14.14q-11.6-3.72-22.89-8.34"/><path class="cls-1" d="M734.85,327.62a331.79,331.79,0,0,0,71.47-11.23c8.36-2.27,16.64-4.88,24.78-7.85"/><path class="cls-1" d="M467.79,369.93S429.32,490,520.14,627.56c0,0-22,35.44,13.93,61.16"/><path class="cls-1" d="M1161,867.12c0,72.61-199.36,131.44-445.33,131.44h-6.92c-246,0-445.33-58.83-445.33-131.44,0-47.77,86.36-89.59,215.52-112.6a65.09,65.09,0,0,0,53.67-64.07h0c40.42,12.13,104.29,20,176.14,20h6.93c71,0,134.14-7.64,174.63-19.51l1.51-.44h0a65.08,65.08,0,0,0,53.66,64.07C1074.6,777.53,1161,819.35,1161,867.12Z"/><path class="cls-1" d="M712.12,710.39h-3.41c-71,0-134.15-7.64-174.64-19.51v-2.17C573.45,701.62,638.44,710.13,712.12,710.39Z"/><path class="cls-1" d="M520.14,627.56s93.4,19,191.91,14.46"/><path class="cls-1" d="M717.51,952s349.91-13.69,349.56-89.73"/><line class="cls-1" x1="682.03" y1="952.03" x2="641.31" y2="952.03"/></g></g></svg>