<svg xmlns="http://www.w3.org/2000/svg" viewBox="0 0 432.21 1043.52"><defs><style>.cls-1{fill:none;stroke:#1d1e22;stroke-linecap:round;stroke-linejoin:round;stroke-width:13px;}</style></defs><title>Стакан С_Таня</title><g id="Шар_2" data-name="Шар 2"><g id="Слой_1" data-name="Слой 1"><ellipse class="cls-1" cx="216.11" cy="59.55" rx="209.61" ry="53.05"/><path class="cls-1" d="M260.46,908.43C278,905.7,297,900.7,310,885.7c12-15,19-32,20-50,13-186,19-370,31-556a764.39,764.39,0,0,1,10-82c7-42,17-84,41.08-119.18"/><path class="cls-1" d="M20.12,78.52C27,85.7,30,94.7,35,102.7c3,8,6,15,9,23,3,10,6,18,9,28a162.47,162.47,0,0,0,4,19c3,19,6,36,9,54,2,17,3,33,4,49,12,182,20,363,30,545,1,10,1,19,3,29,4,14,9,26,19,36,2,1,3,3,5,5a66,66,0,0,0,41.84,17.91"/><path class="cls-1" d="M310,885.7s-19.81,49.77,0,72.56c0,0,56.48,14.28,55.39,33.45s-31,36.84-114.54,43.32l-15.74,1.31c-13.79.72-19.17,1.06-36,0l-14.36-.94c-84.23-5.76-117.2-24.54-118.29-43.71s55.39-33.45,55.39-33.45c19.82-22.79,0-72.56,0-72.56"/><path class="cls-1" d="M118.44,319.6q.21,11.46-.09,22.91"/><path class="cls-1" d="M94.49,140.81C106,183.7,111,226.7,115.62,270.6"/></g></g></svg>