<svg xmlns="http://www.w3.org/2000/svg" viewBox="0 0 359.39 976.05"><defs><style>.cls-1{fill:none;stroke:#1d1e22;stroke-linecap:round;stroke-linejoin:round;stroke-width:13px;}.cls-2{fill:#1d1e22;}</style></defs><title>Стакан H_Tanya</title><g id="Шар_2" data-name="Шар 2"><g id="Слой_1" data-name="Слой 1"><path class="cls-1" d="M297.22,35.33c0,15.92-52.7,28.82-117.7,28.82S61.85,51.26,61.83,35.34h0c.16-1.07.26-1.78.32-2.12v0a1.59,1.59,0,0,0,.07-.2C67.12,18.15,117.76,6.5,179.52,6.5c63.76,0,115.69,12.42,117.64,27.93A6.8,6.8,0,0,1,297.22,35.33Z"/><path class="cls-1" d="M62.15,33.21c-.06.34-.16,1-.32,2.12A7.37,7.37,0,0,1,62.15,33.21Z"/><path class="cls-1" d="M62.15,33.17l0-.2h0"/><path class="cls-2" d="M125.33,912.4a5.91,5.91,0,0,0,4.64-2.25c2.94-3.76,8-10.75,8-10.75a187.57,187.57,0,0,0,19.3-38.5,6.46,6.46,0,0,0,.35-2.09v-.29c1.81-148.52-4.7-234.35-8.74-272.29a61.19,61.19,0,0,0-19.58-38.72l-22-20.17A134.8,134.8,0,0,1,67,459.82c-36.79-150.24-2.78-396,1.22-423.55a6.5,6.5,0,0,0-12.87-1.86c-4,27.78-38.35,275.87-1,428.5a147.74,147.74,0,0,0,44.07,74l22,20.18a48.18,48.18,0,0,1,15.43,30.51c4,37.59,10.45,122.6,8.68,270-1.7,4.63-9.8,25.44-24.27,44.08a6.74,6.74,0,0,0-1.35,5.59,6.5,6.5,0,0,0,6.34,5.08Z"/><path class="cls-2" d="M319.17,188c-5.23-86.32-15.42-153.9-15.53-154.57a6.58,6.58,0,0,0-8.3-5.27,6.45,6.45,0,0,0-4.5,4.8,6.67,6.67,0,0,0,0,3c1,6.83,10.37,71.36,15.31,152.81,4.79,79,6.27,190.32-13.84,272.48a134.83,134.83,0,0,1-40.21,67.51l-22,20.17a61.26,61.26,0,0,0-19.59,38.73c-7.58,71.19-10.73,162.37-9.37,271,.07,3.78,9.1,21.34,9.19,21.51a153.45,153.45,0,0,0,11.59,19.15s3.52,5.16,6.19,9.05a9.16,9.16,0,0,0,7.53,3.95H236a6.65,6.65,0,0,0,5.57-2.86,6.51,6.51,0,0,0-1.05-8.49c-12.63-11.28-24.27-37.9-26.42-43.56-1.33-107.66,1.8-198,9.31-268.41a48.25,48.25,0,0,1,15.44-30.53l22-20.16a147.85,147.85,0,0,0,44.06-74C325.48,380.64,324,267.88,319.17,188Z"/><path class="cls-2" d="M209,847.2A28.83,28.83,0,0,1,211,859.32c-.05.73-.13,1.45-.24,2.14,33.77,2.06,64.8,7.43,89.5,15.67,28.88,9.63,46.13,22.37,46.13,34.07s-17.25,24.44-46.13,34.07c-32.11,10.71-74.93,16.61-120.57,16.61S91.24,956,59.13,945.27C30.24,935.64,13,922.9,13,911.2s17.25-24.44,46.13-34.07c25.28-8.43,57.21-13.87,91.91-15.8a25.68,25.68,0,0,1-.09-4.1A21.12,21.12,0,0,1,154.19,847C75.44,851,0,873.18,0,911.2c0,42.12,92.58,64.85,179.69,64.85s179.7-22.73,179.7-64.85C359.39,873.78,286.33,851.67,209,847.2Z"/><path class="cls-1" d="M89.46,230.22q-1.78,42.14-1.31,84.31c.32,27.89,1.06,55.93,4.74,83.61,2,15,4,30.15,7.81,44.79"/><path class="cls-1" d="M97.53,110.79c-2,22.15-4,45.15-5.32,66.66"/></g></g></svg>