<svg xmlns="http://www.w3.org/2000/svg" viewBox="0 0 866.24 1066.76"><defs><style>.cls-1{fill:none;stroke:#1d1e22;stroke-linecap:round;stroke-linejoin:round;stroke-width:13px;}</style></defs><title>Світильник L_Tanya</title><g id="Шар_2" data-name="Шар 2"><g id="Слой_1" data-name="Слой 1"><path class="cls-1" d="M149.88,69.76h-.19l18.24,205.78C38.68,291.81,3.63,431.24,6.68,541.86c3.54,128.31,51.79,260.37,158.61,337.69a373.34,373.34,0,0,0,66.46,38.38c10.66,4.76,43.11,13.71,44.53,27.71l5.71,52.5"/><path class="cls-1" d="M715.36,67.52c-.05.69-.11,1.38-.17,2.08-5.08,32.74-129.69,58.93-282.67,58.93-152.72,0-277.18-26.11-282.64-58.77a12.94,12.94,0,0,1-.19-2.24c0-33.7,126.63-61,282.83-61S715.36,33.82,715.36,67.52Z"/><path class="cls-1" d="M715.36,67.52a12.08,12.08,0,0,1-.17,2.08C715.25,68.9,715.31,68.21,715.36,67.52Z"/><path class="cls-1" d="M106,475.42c14.66-85.55,99.89-74.4,85.2,11.15S145.6,639,122.06,635.91,91.34,561,106,475.42Z"/><path class="cls-1" d="M449.1,1017.38c44.64-1.63,87.64-5.63,132.64-17.63a2.15,2.15,0,0,0,2-2v-11c2-12,2-24,3-36,1-9,10-14,17-18,53.31-30.46,103.74-53.18,146.75-99.06,90.89-96.93,122-240.92,104.64-370.17-11.77-87.41-60-182.39-158.39-189.77h0c5-60,10-119,15-179,1-9,1-18,3.62-27.23"/><path class="cls-1" d="M583.07,999.28c-.22,9-.74,18.3-1.66,27.35A19,19,0,0,1,567,1043.05c-87.32,21.66-179.83,24.16-266.43.11A22.7,22.7,0,0,1,284.11,1023c-.63-8.3-1-16.45-2.12-24.83,15.61,4.56.06.69,0,0a470.47,470.47,0,0,0,47.46,11.19"/><path class="cls-1" d="M167.93,275.54S273,311,387.68,310.11"/></g></g></svg>