<svg xmlns="http://www.w3.org/2000/svg" viewBox="0 0 612.17 1014.36"><defs><style>.cls-1{fill:none;stroke:#1d1e22;stroke-linecap:round;stroke-linejoin:round;stroke-width:13px;}.cls-2{fill:#1d1e22;}</style></defs><title>Стакан V_Tanya</title><g id="Шар_2" data-name="Шар 2"><g id="Слой_1" data-name="Слой 1"><path class="cls-1" d="M594.21,99.21c0,38.71-128.16,70.08-286.25,70.08S21.68,137.92,21.68,99.21c0-24.07,49.54-45.31,125-57.91,2.14-.37,4.28-.71,6.47-1,36-5.67,77.45-9.42,122.05-10.66a.82.82,0,0,1,0,.22c0,.54-.07,1.1-.07,1.66a3.38,3.38,0,0,0,0,.55V99.21H334.7V32a3.38,3.38,0,0,0,0-.55,14,14,0,0,0-.09-1.71c0-.12,0-.24,0-.34,94.66,2.14,176,15.55,221.28,34.7C580.24,74.44,594.21,86.43,594.21,99.21Z"/><path class="cls-1" d="M275.16,31.47a3.38,3.38,0,0,0,0,.55l0-.55Z"/><path class="cls-1" d="M334.7,31.47V32a3.38,3.38,0,0,0,0-.55Z"/><path class="cls-1" d="M334.7,32V99.21H275.13V32a3.38,3.38,0,0,1,0-.55c0-.56,0-1.12.07-1.66a.82.82,0,0,0,0-.22c1.44-13,14.17-23.09,29.67-23.09s28.1,10,29.63,22.92c0,.1,0,.22,0,.34a14,14,0,0,1,.09,1.71A3.38,3.38,0,0,1,334.7,32Z"/><line class="cls-1" x1="21.51" y1="131.25" x2="17.57" y2="909.22"/><line class="cls-1" x1="594.21" y1="909.22" x2="594.21" y2="128.26"/><path class="cls-1" d="M256.25,113.81s13.92,14.45,48.67,14.45,49.63-14.45,49.63-14.45"/><path class="cls-1" d="M605.67,107c0,7.39-4,14.55-11.46,21.31C558.44,160.72,443,184.47,306.08,184.47c-132.66,0-245.17-22.31-284.57-53.22-9.73-7.64-15-15.81-15-24.3,0-27.67,56-52,140.23-65.65-75.51,12.6-125,33.84-125,57.91,0,38.71,128.16,70.08,286.28,70.08s286.25-31.37,286.25-70.08c0-12.78-14-24.77-38.38-35.09C587.32,76.38,605.67,91.1,605.67,107Z"/><path class="cls-1" d="M594.21,99.21c0,38.71-128.16,70.08-286.25,70.08S21.68,137.92,21.68,99.21c0-24.07,49.54-45.31,125-57.91,2.14-.37,4.28-.71,6.47-1,36.4-5.6,77.79-9.25,122-10.44,0,.54-.07,1.1-.07,1.66a3.38,3.38,0,0,0,0,.55V99.21H334.7V32a3.38,3.38,0,0,0,0-.55,14,14,0,0,0-.09-1.71C427,32,507.12,45.14,555.83,64.12,580.24,74.44,594.21,86.43,594.21,99.21Z"/><path class="cls-2" d="M575.38,879.66c-12.54-9.09-29.46-17.38-50.38-24.7a5.68,5.68,0,0,0-7.25,3.45v0c-.2.59-.56,5,.46,6.34,0,0,1.13,2,2.36,2.39,42.87,15,67.16,33.7,67.17,52.18,0,20.25-29.1,40.8-79.85,56.37-53.85,16.53-125.58,25.63-202,25.63-22.5,0-68.53-2.7-69.25-3.16-1.38-.9-5.31-.85-6.07-.54S118.32,982.4,81.2,967.85c-36.84-14.43-57.13-31.65-57.13-48.49,0-20.24,29.11-40.79,79.85-56.36,53.86-16.53,125.58-25.63,202-25.63q17.5,0,34.63.65a4.63,4.63,0,0,0,2.66-.7c.88-.56,4.49-4.53,4.22-6.56l0-.14a11.93,11.93,0,0,0-1.86-4.12,4.78,4.78,0,0,0-3.2-1.41q-18-.71-36.43-.72c-77.64,0-150.72,9.3-205.78,26.2-27.16,8.34-48.6,18.12-63.7,29.08-16.81,12.21-25.34,25.57-25.34,39.71,0,22.89,22.61,43.84,65.39,60.6,39.43,15.44,94.86,26.64,156.08,31.53l.23,0c23.88,1.89,48.49,2.85,73.14,2.85,77.65,0,150.73-9.3,205.78-26.2,27.17-8.34,48.6-18.12,63.7-29.08,16.82-12.21,25.34-25.57,25.34-39.72S592.19,891.86,575.38,879.66Z"/><line class="cls-1" x1="81.25" y1="206.66" x2="81.25" y2="536.03"/><line class="cls-1" x1="81.25" y1="625.13" x2="81.25" y2="756.77"/></g></g></svg>