<svg xmlns="http://www.w3.org/2000/svg" viewBox="0 0 63.98 50.27"><defs><style>.cls-1{fill:#393f4d;}</style></defs><title>#393f4d</title><g id="Шар_2" data-name="Шар 2"><g id="Шар_1-2" data-name="Шар 1"><g id="Шар_1-2-2" data-name="Шар 1-2"><path class="cls-1" d="M33.84,4.92,33.58,5c-1.38.43-9.13,2.71-16.09,5l-2.83.92L7.75,39.48a.36.36,0,0,1-.34.31h0c-.26-.06-.43-.26-.38-.43L13.86,11.2C2.93,14.94,1,16.32.7,16.79a5,5,0,0,0,2.07.26A17.73,17.73,0,0,0,4.82,17a.4.4,0,0,1,.4.37h0a.36.36,0,0,1-.32.38c-.8.06-1.46.06-2,.06-2.22,0-2.79-.35-2.88-.84-.11-.66-.32-1.87,16.82-7.51C24.25,7,31.93,4.72,33.41,4.29l.26-.09a.45.45,0,0,1,.46.29.36.36,0,0,1-.28.43Z"/><path class="cls-1" d="M35.84,3.48a13.94,13.94,0,0,1,.28,2.57c0,7.28-6.25,19.26-12,24.56-1.9,1.67-3.88,2.68-5.47,2.68a4.08,4.08,0,0,1-1.5-.29c-1.58-.64-2.45-2.1-2.51-4.26a14.4,14.4,0,0,1,.69-4.32,10.4,10.4,0,0,1-.2-2.16,25.45,25.45,0,0,1,2-8.93C20,6.77,25.44,0,31.08,0a7.06,7.06,0,0,1,1.3.11A4.5,4.5,0,0,1,35.84,3.48ZM35.4,6.07a8.93,8.93,0,0,0-.28-2.41A3.76,3.76,0,0,0,32.21.86h0A5.21,5.21,0,0,0,31,.72c-5.27,0-10.43,6.56-13.1,12.9a22.29,22.29,0,0,0-2,8.87h.12c2.07-5.47,6-11.12,8.35-12.18a.37.37,0,0,1,.49.17.38.38,0,0,1-.18.49c-2.39,1.09-6.85,7.77-8.55,13.42a4.39,4.39,0,0,0,1.61,2.68.32.32,0,0,1,.12.44l0,0c-.11.18-.29.26-.34.21a4.93,4.93,0,0,1-1.73-2.08,11.67,11.67,0,0,0-.35,3,3.63,3.63,0,0,0,2,3.63,3.2,3.2,0,0,0,1.26.23c1.79,0,3.66-1.27,5-2.48C29.27,25.11,35.4,13.19,35.4,6.07Z"/><path class="cls-1" d="M64,32.08h0a.37.37,0,0,1-.35.34h-.11c-8.06,0-13-3.45-18.17-7.14l-.81-.55a10.65,10.65,0,0,0-1.61-.83c-1.44.78-2.77,1.38-3.92,1.9L35.73,36.11a.43.43,0,0,1-.35.23h-.05c-.2-.06-.35-.26-.29-.43l3.08-9.74a10,10,0,0,1-3.6.93,1.31,1.31,0,0,1-1-.35c-.14-.17-.43-.75.41-1.61a9,9,0,0,1,5.35-2.45L44.17,7.2a.32.32,0,0,1,.4-.21h0a.34.34,0,0,1,.26.42h0L40,22.63a8.88,8.88,0,0,1,2.85.43c2-1.06,4.35-2.44,7.17-4.2C59.23,13,60.46,9.73,60.32,8.29s-1.93-2.22-3.23-2.62A18.36,18.36,0,0,0,51.77,5C45.55,5,38.15,7,35.93,9.7a.32.32,0,0,1-.45,0l0,0a.4.4,0,0,1,0-.52c2.49-3,10.05-4.89,16.27-4.89A21.25,21.25,0,0,1,57.27,5c2.88.84,3.65,2.22,3.8,3.2C61.47,11,57.53,15,50.44,19.54c-2.39,1.5-4.72,2.88-6.68,4,.46.23.81.46,1.18.69l.81.57c5,3.49,10.14,7,17.74,7h.11A.42.42,0,0,1,64,32.08ZM34,26.32c.2.23,1.47.23,4.35-1l.6-1.79a11.14,11.14,0,0,0-3.45,1.24c-1.07.67-1.53,1.39-1.5,1.53Zm5.41-1.5c.52-.23,1.07-.52,1.67-.84.21-.11.61-.28.84-.4a9.54,9.54,0,0,0-1.76-.23,1.54,1.54,0,0,0-.43.06l-.4,1.32Z"/><path class="cls-1" d="M2.46,49.19l-1-1.34-1,1.34H.18l1.14-1.47L.24,46.34H.46l1,1.24,1-1.24h.2L1.53,47.72l1.16,1.47Z"/><path class="cls-1" d="M5.51,46.34,4,49.62c-.22.49-.49.65-.84.65A.87.87,0,0,1,2.54,50l.11-.15a.64.64,0,0,0,.53.24c.27,0,.48-.13.66-.54L4,49.16,2.73,46.34h.2L4.12,49l1.2-2.64Z"/><path class="cls-1" d="M8.74,49v.88H8.57v-.72H5.75v.72H5.58V49h.17c.44,0,.51-.9.56-1.76v-.93h2V49ZM6.05,49h2V46.5H6.52v.78C6.45,48,6.37,48.82,6.05,49Z"/><path class="cls-1" d="M9.31,47.76a1.4,1.4,0,1,1,1.4,1.44,1.38,1.38,0,0,1-1.4-1.36Zm2.62,0A1.22,1.22,0,1,0,10.71,49a1.2,1.2,0,0,0,1.22-1.18Z"/><path class="cls-1" d="M15.3,47.82h-.71v1.37h-.18V47.82h-.7l-1,1.37h-.22l1.09-1.46-1-1.39h.21l1,1.32h.7V46.34h.18v1.32h.71l1-1.32h.21l-1,1.39,1.09,1.46h-.22Z"/><path class="cls-1" d="M17.3,46.34h.18v1.33h2.06V46.34h.18v2.85h-.18V47.83H17.48v1.36H17.3Z"/><path class="cls-1" d="M20.87,45.41a.19.19,0,0,1,.18-.18.18.18,0,1,1-.18.18Zm.1.93h.18v2.85h-.22Z"/><path class="cls-1" d="M26,48.43c0,.49-.34.76-1.07.76H23.78V46.34h1.15c.61,0,1,.24,1,.72a.66.66,0,0,1-.55.66.65.65,0,0,1,.65.67Zm-2.1-.76h1c.51,0,.81-.2.81-.59s-.3-.59-.81-.59h-1Zm1.89.75c0-.41-.25-.61-.83-.61H23.93V49h1c.62,0,.92-.15.92-.58Z"/><path class="cls-1" d="M27.07,46.34h.18V48.9l2.14-2.56h.16v2.85h-.18V46.63l-2.15,2.56h-.15Z"/><path class="cls-1" d="M33.6,47.76a1.38,1.38,0,0,1-1.32,1.44H32.2A1.27,1.27,0,0,1,31,48.42v1.83h-.19V46.34h.14v.78a1.29,1.29,0,0,1,1.23-.81,1.39,1.39,0,0,1,1.44,1.34Zm-.18,0A1.22,1.22,0,1,0,32.2,49a1.21,1.21,0,0,0,1.22-1.2Z"/><path class="cls-1" d="M34.25,47.76a1.4,1.4,0,0,1,2.8,0h0a1.4,1.4,0,0,1-2.8,0Zm2.62,0A1.22,1.22,0,1,0,35.65,49a1.2,1.2,0,0,0,1.22-1.18Z"/><path class="cls-1" d="M40.64,47.77a1.37,1.37,0,0,1-1.28,1.44h-.1c-.94,0-1.45-.76-1.45-1.85,0-1.34.47-1.87,1.41-2.11l1.25-.31v.18l-1.19.29c-.91.22-1.32.69-1.32,1.9h0a1.28,1.28,0,0,1,1.29-1,1.31,1.31,0,0,1,1.39,1.24A.81.81,0,0,1,40.64,47.77Zm-.18,0a1.2,1.2,0,0,0-2.39-.22.81.81,0,0,0,0,.22,1.2,1.2,0,0,0,1.09,1.3A1.18,1.18,0,0,0,40.46,48,.81.81,0,0,0,40.46,47.77Z"/><path class="cls-1" d="M41.6,46.34h.18V48.9l2.15-2.56h.16v2.85h-.16V46.63l-2.14,2.56h-.16Z"/><path class="cls-1" d="M48.56,48.38c0,.51-.56.83-1.17.83a1.68,1.68,0,0,1-1.12-.39l.09-.13a1.53,1.53,0,0,0,1,.37c.52,0,1-.27,1-.7s-.36-.58-.93-.58H47v-.15h.43c.48,0,.85-.21.85-.55s-.42-.61-.91-.61a1.83,1.83,0,0,0-.91.25l-.07-.15a2.05,2.05,0,0,1,1-.27c.6,0,1.08.27,1.08.76a.69.69,0,0,1-.61.63C48.31,47.78,48.56,48,48.56,48.38Z"/><path class="cls-1" d="M49.48,45.41a.18.18,0,1,1,.18.18.18.18,0,0,1-.18-.18Zm.09.93h.18v2.85h-.18Z"/><path class="cls-1" d="M52.09,47.76a1.38,1.38,0,0,1,1.31-1.45h.11a1.29,1.29,0,0,1,1.05.49l-.13.12a1.07,1.07,0,0,0-.92-.43,1.28,1.28,0,0,0-1.16,1.39A1.26,1.26,0,0,0,53.51,49a1.13,1.13,0,0,0,.92-.43l.13.1a1.24,1.24,0,0,1-1.05.49,1.38,1.38,0,0,1-1.42-1.34Z"/><path class="cls-1" d="M56.34,47.82H55.6v1.37h-.18V46.34h.18v1.32h.74l1.13-1.32h.21l-1.2,1.39,1.28,1.46h-.22Z"/><path class="cls-1" d="M60.64,46.34v2.85h-.18V46.5H58.87v.81c0,1-.15,1.9-.73,1.9h-.21V49h.13c.5,0,.56-.86.61-1.75l0-1Z"/><path class="cls-1" d="M63.86,47.34v1.85h-.17v-.57a1.12,1.12,0,0,1-1.06.58c-.64,0-1-.32-1-.8s.26-.78,1-.78h1v-.28a.78.78,0,0,0-.69-.86h-.19a1.47,1.47,0,0,0-1,.38l-.1-.13a1.71,1.71,0,0,1,1.12-.42.93.93,0,0,1,1.08.75A.88.88,0,0,1,63.86,47.34Zm-.18,1v-.59h-1c-.62,0-.85.26-.85.62s.32.66.85.66a1,1,0,0,0,1-.67Z"/></g></g></g></svg>