<svg xmlns="http://www.w3.org/2000/svg" viewBox="0 0 64.05 50.27"><defs><style>.cls-1{fill:#111025;}</style></defs><title>Ресурс 4</title><g id="Шар_2" data-name="Шар 2"><g id="Шар_1-2" data-name="Шар 1"><path class="cls-1" d="M33.91,4.92,33.65,5c-1.38.43-9.13,2.71-16.09,5l-2.83.92L7.82,39.48a.36.36,0,0,1-.34.31v0c-.26-.06-.43-.26-.38-.43L13.93,11.2C3,14.94,1.06,16.32.77,16.79a5.07,5.07,0,0,0,2.07.26c.52,0,1.27,0,2.05-.09a.4.4,0,0,1,.4.37h0a.36.36,0,0,1-.32.38c-.8.06-1.46.06-2,.06-2.22,0-2.79-.35-2.88-.84-.11-.66-.32-1.87,16.82-7.51C24.32,7,32,4.72,33.48,4.29l.26-.09a.43.43,0,0,1,.46.29A.36.36,0,0,1,33.91,4.92Z"/><path class="cls-1" d="M35.91,3.48a13.65,13.65,0,0,1,.28,2.57c0,7.28-6.25,19.26-12,24.56-1.9,1.67-3.88,2.68-5.47,2.68A4.16,4.16,0,0,1,17.22,33c-1.58-.64-2.45-2.1-2.51-4.26a14.25,14.25,0,0,1,.69-4.32,10.51,10.51,0,0,1-.2-2.16,25.6,25.6,0,0,1,2.05-8.93C20.1,6.77,25.51,0,31.15,0a7.06,7.06,0,0,1,1.3.11A4.51,4.51,0,0,1,35.91,3.48Zm-.44,2.59a8.72,8.72,0,0,0-.28-2.41A3.75,3.75,0,0,0,32.28.86h0A5.34,5.34,0,0,0,31.1.72C25.83.72,20.67,7.28,18,13.62a22.37,22.37,0,0,0-2,8.87l.12,0c2.07-5.47,6-11.12,8.35-12.18a.37.37,0,0,1,.49.17.37.37,0,0,1-.18.49c-2.39,1.09-6.85,7.77-8.55,13.42a4.4,4.4,0,0,0,1.61,2.68.32.32,0,0,1,.09.48c-.11.18-.29.26-.34.21a5,5,0,0,1-1.73-2.08,11.63,11.63,0,0,0-.35,3c0,1.84.75,3.08,2,3.63a3.2,3.2,0,0,0,1.26.23c1.79,0,3.66-1.27,5-2.48C29.34,25.11,35.47,13.19,35.47,6.07Z"/><path class="cls-1" d="M64.05,32.08h0a.37.37,0,0,1-.35.34h-.11c-8.06,0-13-3.45-18.17-7.14l-.81-.55A10.62,10.62,0,0,0,43,23.9c-1.44.78-2.77,1.38-3.92,1.9L35.8,36.11a.44.44,0,0,1-.35.23H35.4c-.2-.06-.35-.26-.29-.43l3.08-9.74a10.11,10.11,0,0,1-3.6.93,1.3,1.3,0,0,1-1-.35c-.14-.17-.43-.75.41-1.61a9.11,9.11,0,0,1,5.35-2.45L44.24,7.2A.32.32,0,0,1,44.67,7a.35.35,0,0,1,.26.43L40.09,22.63a9,9,0,0,1,2.85.43c2-1.06,4.35-2.44,7.17-4.2C59.3,13,60.53,9.73,60.39,8.29s-1.93-2.22-3.23-2.62A18.17,18.17,0,0,0,51.84,5C45.62,5,38.22,7,36,9.7a.32.32,0,0,1-.49,0,.4.4,0,0,1,0-.52C38,6.16,45.56,4.29,51.78,4.29A21.41,21.41,0,0,1,57.34,5c2.88.84,3.65,2.22,3.8,3.2.4,2.76-3.54,6.82-10.63,11.34-2.39,1.5-4.72,2.88-6.68,4,.46.23.81.46,1.18.69l.81.57c5,3.49,10.14,7,17.74,7h.11A.41.41,0,0,1,64.05,32.08ZM34.1,26.32c.2.23,1.47.23,4.35-1l.6-1.79a11,11,0,0,0-3.45,1.24c-1.07.67-1.53,1.39-1.5,1.53Zm5.41-1.5c.52-.23,1.07-.52,1.67-.84.21-.11.61-.28.84-.4a9.25,9.25,0,0,0-1.76-.23,1.79,1.79,0,0,0-.43.06l-.4,1.32Z"/><path class="cls-1" d="M2.53,49.19l-1-1.34-1,1.34H.25l1.14-1.47L.31,46.34H.53l1,1.24,1-1.24h.2L1.6,47.72l1.16,1.47Z"/><path class="cls-1" d="M5.58,46.34,4.09,49.62c-.22.49-.49.65-.84.65A.86.86,0,0,1,2.61,50l.11-.15a.65.65,0,0,0,.53.24c.27,0,.48-.13.66-.54l.18-.39L2.8,46.34H3L4.19,49l1.2-2.64Z"/><path class="cls-1" d="M8.81,49v.88H8.64v-.72H5.82v.72H5.65V49h.17c.44,0,.51-.9.56-1.76l0-.93H8.34V49ZM6.12,49h2V46.5H6.59l0,.78C6.52,48,6.44,48.82,6.12,49Z"/><path class="cls-1" d="M9.38,47.76a1.4,1.4,0,1,1,1.4,1.44A1.38,1.38,0,0,1,9.38,47.76Zm2.62,0A1.22,1.22,0,1,0,10.78,49,1.2,1.2,0,0,0,12,47.76Z"/><path class="cls-1" d="M15.37,47.82h-.71v1.37h-.18V47.82h-.7l-1,1.37h-.22l1.09-1.46-1-1.39h.21l.95,1.32h.7V46.34h.18v1.32h.71l1-1.32h.21l-1,1.39,1.09,1.46h-.22Z"/><path class="cls-1" d="M17.37,46.34h.18v1.33h2.06V46.34h.18v2.85h-.18V47.83H17.55v1.36h-.18Z"/><path class="cls-1" d="M20.94,45.41a.19.19,0,0,1,.18-.18.18.18,0,1,1,0,.36A.19.19,0,0,1,20.94,45.41Zm.1.93h.18v2.85H21Z"/><path class="cls-1" d="M26.1,48.43c0,.49-.34.76-1.07.76H23.85V46.34H25c.61,0,1,.24,1,.72a.66.66,0,0,1-.55.66A.66.66,0,0,1,26.1,48.43ZM24,47.67h1c.51,0,.81-.2.81-.59s-.3-.59-.81-.59H24Zm1.89.75c0-.41-.25-.61-.83-.61H24V49h1C25.62,49,25.92,48.85,25.92,48.42Z"/><path class="cls-1" d="M27.14,46.34h.18V48.9l2.14-2.56h.16v2.85h-.18V46.63l-2.15,2.56h-.15Z"/><path class="cls-1" d="M33.67,47.76a1.38,1.38,0,0,1-1.4,1.44,1.28,1.28,0,0,1-1.22-.78v1.83h-.19V46.34H31v.78a1.3,1.3,0,0,1,1.23-.81A1.39,1.39,0,0,1,33.67,47.76Zm-.18,0A1.22,1.22,0,1,0,32.27,49,1.21,1.21,0,0,0,33.49,47.76Z"/><path class="cls-1" d="M34.32,47.76a1.4,1.4,0,1,1,2.8,0,1.4,1.4,0,1,1-2.8,0Zm2.62,0A1.22,1.22,0,1,0,35.72,49,1.2,1.2,0,0,0,36.94,47.76Z"/><path class="cls-1" d="M40.71,47.77a1.36,1.36,0,0,1-1.38,1.44c-.94,0-1.45-.76-1.45-1.85,0-1.34.47-1.87,1.41-2.11l1.25-.31,0,.18-1.19.29c-.91.22-1.32.69-1.32,1.9h0a1.28,1.28,0,0,1,1.29-1A1.32,1.32,0,0,1,40.71,47.77Zm-.18,0a1.2,1.2,0,1,0-2.39,0,1.2,1.2,0,1,0,2.39,0Z"/><path class="cls-1" d="M41.67,46.34h.18V48.9L44,46.34h.16v2.85H44V46.63l-2.14,2.56h-.16Z"/><path class="cls-1" d="M48.63,48.38c0,.51-.56.83-1.17.83a1.68,1.68,0,0,1-1.12-.39l.09-.13a1.5,1.5,0,0,0,1,.37c.52,0,1-.27,1-.7s-.36-.58-.93-.58h-.43v-.15h.43c.48,0,.85-.21.85-.55s-.42-.61-.91-.61a1.81,1.81,0,0,0-.91.25l-.07-.15a2.05,2.05,0,0,1,1-.27c.6,0,1.08.27,1.08.76a.69.69,0,0,1-.61.63C48.38,47.78,48.63,48,48.63,48.38Z"/><path class="cls-1" d="M49.55,45.41a.18.18,0,1,1,.18.18A.18.18,0,0,1,49.55,45.41Zm.09.93h.18v2.85h-.18Z"/><path class="cls-1" d="M52.16,47.76a1.38,1.38,0,0,1,1.42-1.45,1.28,1.28,0,0,1,1.05.49l-.13.12a1.09,1.09,0,0,0-.92-.43,1.28,1.28,0,0,0,0,2.55,1.11,1.11,0,0,0,.92-.43l.13.1a1.25,1.25,0,0,1-1.05.49A1.38,1.38,0,0,1,52.16,47.76Z"/><path class="cls-1" d="M56.41,47.82h-.74v1.37h-.18V46.34h.18v1.32h.74l1.13-1.32h.21l-1.2,1.39,1.28,1.46h-.22Z"/><path class="cls-1" d="M60.71,46.34v2.85h-.18V46.5H58.94l0,.81c0,1-.15,1.9-.73,1.9l-.21,0L58,49l.13,0c.5,0,.56-.86.61-1.75l.05-.95Z"/><path class="cls-1" d="M63.93,47.34v1.85h-.17v-.57a1.12,1.12,0,0,1-1.06.58c-.64,0-1-.32-1-.8s.26-.78,1-.78h1v-.28a.78.78,0,0,0-.88-.86,1.46,1.46,0,0,0-1,.38l-.1-.13a1.65,1.65,0,0,1,1.12-.42A.93.93,0,0,1,63.93,47.34Zm-.18,1v-.59h-1c-.62,0-.85.26-.85.62s.32.66.85.66A1,1,0,0,0,63.75,48.36Z"/></g></g></svg>