<svg xmlns="http://www.w3.org/2000/svg" viewBox="0 0 1211.39 753.19"><defs><style>.cls-1{fill:#393f4d;}</style></defs><title>тор_обрізане</title><g id="Шар_2" data-name="Шар 2"><g id="Шар_1-2" data-name="Шар 1"><path class="cls-1" d="M641.38,93.12l-4.9,1.64c-26.14,8.16-172.63,51.18-304.42,94.24l-53.37,17.42L148,746.67c-.54,3.24-3.26,6-6.52,6v.53c-4.9-1.11-8.18-4.92-7.1-8.16l129.09-533.2C55.93,282.65,20,308.77,14.56,317.51c3.25,1.64,12.52,4.92,39.2,4.92,9.8,0,24-.58,38.66-1.64a7.65,7.65,0,0,1,7.63,7H99.5c0,3.81-2.71,7.09-6,7.09C78.26,336,65.75,336,54.84,336,12.91,336,2,329.48.39,320.21c-2.18-12.5-6-35.39,318.06-142.12C460,131.79,604.89,89.31,633.22,81.15l4.9-1.64c3.26-1.06,7.08,1.64,8.72,5.45C647.92,88.78,645.2,92.06,641.38,93.12Z"/><path class="cls-1" d="M679.12,65.9c2.71,13.08,5.43,31,5.43,48.46,0,137.78-118.17,364.34-226.55,464.55-35.94,31.58-73.52,50.65-103.48,50.65a77.71,77.71,0,0,1-28.87-5.46c-29.93-12-46.27-39.73-47.36-80.57-.55-24.52,4.35-52.86,13.06-81.68-2.72-12.55-3.81-26.17-3.81-40.89,0-52.28,17.43-116.54,38.67-168.82C380.13,128,482.5,0,589.26,0a123.74,123.74,0,0,1,24.5,2.17C645.89,8.74,669.3,31.57,679.12,65.9Zm-8.18,49c0-17.43-1.64-32.69-5.43-45.72-9.27-28.87-27.25-47.41-55-52.86H611a95.79,95.79,0,0,0-22.86-2.71c-99.66,0-197.15,124.17-248.35,244-26.14,61.55-39.2,121.45-38.11,167.75l2.17.53c39.2-103.45,113.83-210.23,157.93-230.37a7,7,0,0,1,9.27,3.29A6.7,6.7,0,0,1,467.8,208c-45.19,20.71-129.62,147-161.75,253.83,5.46,22.3,15.26,40.26,30.51,50.64,3.26,1.59,3.82,6.52,1.62,9.22-2.17,3.28-5.43,4.92-6.52,3.81A94.53,94.53,0,0,1,299,486.32c-4.9,20.71-7.07,40.31-6.54,56.63.55,34.86,14.17,58.31,38.14,68.65,7.6,3.28,15.78,4.34,23.94,4.34,33.77,0,69.18-23.94,94.76-46.83C554.93,474.88,670.94,249.44,670.94,114.9Z"/><path class="cls-1" d="M1211.39,606.67h-.56a7,7,0,0,1-6.54,6.57h-2.17c-152.48,0-245.63-65.37-343.65-135.08l-15.25-10.33a194.94,194.94,0,0,0-30-15.83c-27.22,14.72-52.28,26.16-74,36L677.13,683c-1.09,2.17-3.82,4.34-6.55,4.34H669.5c-3.82-1.11-6.54-4.92-5.46-8.16l58.27-184.07c-29.4,12-51.73,17.43-68.07,17.43-9.24,0-16.34-2.18-19.6-6.57-2.72-3.23-8.16-14.14,7.63-30.46,18-19.65,56.1-40.89,101.28-46.3l93.15-293c1.09-3.82,4.34-5.46,8.16-4.35s6,4.92,4.9,8.16L758.28,428.06c18,0,36.47,2.17,53.9,8.15,37.58-20.13,82.23-46.29,135.6-79.5,173.74-110,197.16-172.64,194.43-199.86-4.9-27.23-36.5-41.95-61-49.58-30-9.22-64.25-12.51-100.75-12.51-117.62,0-257.59,37-300.08,88.78a6.27,6.27,0,0,1-9.24.53,7.5,7.5,0,0,1-1.11-9.8C718,116.54,861.73,81.15,979.38,81.15c38.66,0,76.25,4.35,105.11,12.51,54.46,15.83,69.16,41.94,71.89,60.48,7.62,52.28-67,129-201,214.54-45.19,28.33-89.31,54.5-126.34,74.63,8.72,4.35,15.23,8.69,22.33,13.08l15.25,10.87c93.66,65.89,191.7,132.36,335.47,132.36h2.17C1208.1,599.62,1210.83,602.86,1211.39,606.67ZM645,497.76c3.81,4.35,27.76,4.35,82.23-19.6l11.42-33.79c-25,4.39-49,13.66-65.34,23.46C653.16,480.34,644.44,494,645,496.7Zm102.37-28.33c9.8-4.35,20.15-9.8,31.59-15.79,3.82-2.17,11.44-5.45,15.79-7.63-13.06-2.7-24-4.34-33.21-4.34-1.65,0-2.73,0-8.16,1.11l-7.63,25.05Z"/></g></g></svg>