<svg xmlns="http://www.w3.org/2000/svg" viewBox="0 0 1327.5 1023.88"><defs><style>.cls-1{fill:none;stroke:#1d1e22;stroke-linecap:round;stroke-linejoin:round;stroke-width:13px;}.cls-2{fill:#1d1e22;}</style></defs><title>Пресовані вироби R_Tanya</title><g id="Шар_2" data-name="Шар 2"><g id="Слой_1" data-name="Слой 1"><path class="cls-1" d="M1109.76,867c-6.61,43.09-45.61,67.09-80.61,85.09s-69,29-107,39c-44,11-86,16-130,21h-10c-128,12-252,4-379-27-67-17-145-41-167.33-113.5"/><ellipse class="cls-1" cx="663.75" cy="186.08" rx="475.74" ry="104.1"/><path class="cls-2" d="M876,352v0a2.59,2.59,0,0,0-2.78-2.07c-66.58,6.11-137.11,9.29-209.44,9.29-175,0-339.44-18.6-463-52.37-4.56-1.24-9-2.51-13.44-3.78A5.78,5.78,0,0,0,180,307.8a20.78,20.78,0,0,1-.55,2.58v0a4.63,4.63,0,0,0,3.29,4.82q7.15,2.08,14.58,4.11C322,353.41,487.63,372.17,663.75,372.17c71.26,0,140.81-3.08,206.63-9a7,7,0,0,0,6.18-9C876.33,353.49,876.14,352.73,876,352Z"/><path class="cls-2" d="M1272.87,110.72C1239.21,89,1191.21,69.5,1130.21,52.83,1005.53,18.76,839.87,0,663.75,0S322,18.76,197.29,52.83c-61,16.67-109,36.15-142.67,57.89C18.38,134.14,0,159.49,0,186.08S18.38,238,54.62,261.45q25.42,16.41,61.56,31a5.94,5.94,0,0,0,8.15-5.4c0-1.17,0-2.34,0-3.51v0a2.64,2.64,0,0,0-1.62-2.49C52.12,252.73,13,219.44,13,186.08,13,142,81.42,98,200.72,65.37,324.31,31.6,488.75,13,663.75,13s339.44,18.6,463,52.37C1246.08,98,1314.5,142,1314.5,186.08c0,32.32-36.73,64.56-103.24,92.31a17.5,17.5,0,0,1-1.85,2.91,23.64,23.64,0,0,1,.38,3.2,9.25,9.25,0,0,0,11.6,3.79q29.64-12.75,51.48-26.84c36.25-23.42,54.63-48.77,54.63-75.37S1309.12,134.14,1272.87,110.72Z"/><path class="cls-1" d="M1321,186.08l-34,134.76s-3,24-69.29,44.83l-107,498.79"/><path class="cls-1" d="M6.53,195.37,43.66,334.85s3.29,24.82,75.59,46.38L235.82,871.56"/><path class="cls-1" d="M115.48,381.21s572,180.53,1102.2-15.54"/><path class="cls-1" d="M564.62,945.29q26.61,2.43,53.3,3.84"/><path class="cls-1" d="M230.15,825.06c37,46,93,68,148,85,44,14,87,23,131.57,28.94"/></g></g></svg>