<svg xmlns="http://www.w3.org/2000/svg" viewBox="0 0 1119.07 1061.39"><defs><style>.cls-1{fill:none;stroke:#1d1e22;stroke-linecap:round;stroke-linejoin:round;stroke-width:13px;}</style></defs><title>Стакан сфера Х_Таня</title><g id="Шар_2" data-name="Шар 2"><g id="Слой_1" data-name="Слой 1"><path class="cls-1" d="M1112.57,527.64c0,291.2-247.6,527.25-553,527.25S6.5,818.84,6.5,527.64c0-193.9,109.79-363.35,273.33-454.93q2.85-1.6,5.73-3.16c85.73-46.44,177.35-63,274-63,138.42,0,267.86,40.2,373.12,132,90.79,79.15,153.86,188.28,173.31,307.46A507,507,0,0,1,1112.57,527.64Z"/><path class="cls-1" d="M264.57,383C289.2,301,171.61,315.1,147,397.06s-18.3,145.23,14.21,141.35S239.89,464.94,264.57,383Z"/><path class="cls-1" d="M839.24,72.71c47.15,61.62-64.61,101.45-107,113.56-111.86,31.94-229.84,29.47-341.94.25-46.32-12.08-177.23-52.37-104.74-117"/></g></g></svg>