<svg xmlns="http://www.w3.org/2000/svg" viewBox="0 0 875.98 1011.41"><defs><style>.cls-1{fill:none;stroke:#1d1e22;stroke-linecap:round;stroke-linejoin:round;stroke-width:13px;}</style></defs><title>Вази різного призначення G_Tanya</title><g id="Шар_2" data-name="Шар 2"><g id="Слой_1" data-name="Слой 1"><path class="cls-1" d="M601.5,110.72c-41.2,9.61-96.08,15.48-156.31,15.48a841.39,841.39,0,0,1-93.12-5c-30.55-3.43-57.63-8.47-79.56-14.75"/><path class="cls-1" d="M437.21,98.93s-96.46-1.35-98.52,20.67"/><path class="cls-1" d="M437.21,98.93s91.06.28,93.12,22.3"/><path class="cls-1" d="M205.63,67.11c-20.46,121.6-483.61,798.43,77,922,174.76,33.26,310.78,3.76,310.78,3.76,560.58-123.54,97.42-800.38,77-922"/><path class="cls-1" d="M672.19,80c-.88-41.49-50.18-51.26-82.06-59C520.29,4.18,446.09,4.51,374.8,9.48c-44.05,3.07-88.13,9.42-130.21,23.16-17,5.55-36.2,14.93-39.55,34.49"/><path class="cls-1" d="M336.71,907.58s97.76-22.74,204.62,0"/><path class="cls-1" d="M668.76,271.5s100.85,209.63,99.38,281.92"/><path class="cls-1" d="M769.61,591.93a390.11,390.11,0,0,1-1.15,52.43"/></g></g></svg>